#!OML:ASF F:\VICON\USERDATA\INSTALL\rory3\rory3.ASF
:FULLY-SPECIFIED
:DEGREES
1193
root -2.07986 17.9673 1.60904 4.18196 5.40065 1.81509
lowerback 6.58696 -1.55495 1.7147
upperback -0.546042 -1.86583 1.59894
thorax -4.26178 -0.945176 0.881804
lowerneck -28.7547 -12.3473 -11.8893
upperneck 2.46243 -13.8714 14.463
head 7.06932 -5.61544 4.61962
rclavicle -2.28602e-015 7.95139e-015
rhumerus 56.4468 -45.946 -32.9158
rradius 36.6626
rwrist 2.11726
rhand -54.3733 -19.947
rfingers 7.12502
rthumb -26.7806 -48.0712
lclavicle -2.28602e-015 7.95139e-015
lhumerus -43.604 5.80941 72.7179
lradius 45.2897
lwrist -3.59372
lhand -16.9313 26.3426
lfingers 7.12502
lthumb 9.30162 56.1174
rfemur -11.0918 2.90989 16.6422
rtibia 27.7462
rfoot -17.7058 -4.28741
rtoes -0.182682
lfemur -7.38624 -0.881304 -10.1944
ltibia 21.6774
lfoot -2.99691 14.7262
ltoes -29.6933
1194
root -2.07879 17.9693 1.60874 4.19505 5.3554 1.96752
lowerback 6.61623 -1.56461 1.70237
upperback -0.545896 -1.87538 1.6781
thorax -4.27511 -0.948693 0.972534
lowerneck -28.6439 -12.3464 -12.0098
upperneck 2.43925 -13.8314 14.4084
head 7.04283 -5.60886 4.62964
rclavicle -1.00386e-014 1.90833e-014
rhumerus 56.7652 -46.0428 -33.4337
rradius 36.3285
rwrist 2.10723
rhand -54.3675 -20.3725
rfingers 7.12502
rthumb -26.775 -48.4975
lclavicle -1.00386e-014 1.90833e-014
lhumerus -43.6058 5.95838 72.6228
lradius 45.2159
lwrist -3.64096
lhand -16.6419 26.6984
lfingers 7.12502
lthumb 9.58087 56.4605
rfemur -11.1215 2.97665 16.464
rtibia 27.809
rfoot -17.7375 -4.27221
rtoes 0.479171
lfemur -7.31755 -0.943451 -10.3682
ltibia 21.5414
lfoot -2.78269 14.7334
ltoes -30.1156
1195
root -2.07784 17.9704 1.60839 4.22544 5.25794 2.25446
lowerback 6.64152 -1.53472 1.52598
upperback -0.575321 -1.84756 1.69951
thorax -4.31359 -0.93072 1.09207
lowerneck -28.5664 -12.3102 -11.9996
upperneck 2.5913 -13.7913 14.2491
head 7.06048 -5.60372 4.58249
rclavicle -1.68967e-015 1.82882e-014
rhumerus 56.5847 -46.0424 -33.3679
rradius 36.1281
rwrist 1.77881
rhand -54.3122 -20.1766
rfingers 7.12502
rthumb -26.7221 -48.3097
lclavicle -1.68967e-015 1.82882e-014
lhumerus -43.7296 5.99874 72.5255
lradius 45.2193
lwrist -3.67972
lhand -16.6602 26.4017
lfingers 7.12502
lthumb 9.56325 56.1646
rfemur -11.1757 3.07303 16.1329
rtibia 27.8818
rfoot -17.7553 -4.26552
rtoes 0.98483
lfemur -7.24681 -0.910388 -10.6963
ltibia 21.4039
lfoot -2.55801 14.7177
ltoes -30.6872
1196
root -2.07786 17.9717 1.60807 4.24059 5.10344 2.39773
lowerback 6.64499 -1.49114 1.50443
upperback -0.600909 -1.78907 1.73457
thorax -4.34073 -0.900876 1.1351
lowerneck -28.4965 -12.2362 -12.0206
upperneck 2.7226 -13.6972 14.1657
head 7.07592 -5.56703 4.57524
rclavicle 2.16675e-014 -1.11319e-014
rhumerus 55.9881 -46.0212 -32.856
rradius 36.0596
rwrist 1.40506
rhand -54.1979 -20.2274
rfingers 7.12502
rthumb -26.6127 -48.3772
lclavicle 2.16675e-014 -1.11319e-014
lhumerus -43.8713 5.95168 72.4181
lradius 45.2518
lwrist -3.75631
lhand -16.7148 26.0287
lfingers 7.12502
lthumb 9.51054 55.7941
rfemur -11.2364 3.24771 15.9627
rtibia 27.9463
rfoot -17.7833 -4.31449
rtoes 1.16853
lfemur -7.1542 -0.867364 -10.8658
ltibia 21.2821
lfoot -2.42285 14.7783
ltoes -30.8691
1197
root -2.07659 17.9747 1.60488 4.27111 4.96518 2.48955
lowerback 6.62047 -1.45668 1.6158
upperback -0.574581 -1.73467 1.75047
thorax -4.30283 -0.876229 1.08225
lowerneck -28.4203 -12.2068 -12.1692
upperneck 2.69253 -13.6269 14.2637
head 7.06618 -5.53173 4.64506
rclavicle -8.54774e-015 1.11319e-014
rhumerus 55.5542 -45.9795 -32.4903
rradius 35.9384
rwrist 1.30923
rhand -54.2518 -20.4134
rfingers 7.12502
rthumb -26.6643 -48.5553
lclavicle -8.54774e-015 1.11319e-014
lhumerus -43.7998 6.04064 72.2764
lradius 45.1522
lwrist -3.9961
lhand -16.6447 26.0847
lfingers 7.12502
lthumb 9.5782 55.847
rfemur -11.342 3.33383 15.8396
rtibia 28.024
rfoot -17.7571 -4.22718
rtoes 1.47406
lfemur -7.07947 -0.837783 -10.9849
ltibia 21.1295
lfoot -2.31806 14.8575
ltoes -30.9496
1198
root -2.07253 17.9783 1.60082 4.34028 4.85993 2.62432
lowerback 6.59875 -1.42875 1.72365
upperback -0.561617 -1.68984 1.7461
thorax -4.2807 -0.856469 1.01177
lowerneck -28.6139 -12.1444 -11.9816
upperneck 2.86309 -13.5591 13.9572
head 7.09794 -5.51135 4.52154
rclavicle -1.78906e-015 2.38542e-015
rhumerus 55.2849 -45.9614 -32.2693
rradius 35.7814
rwrist 1.38307
rhand -54.3415 -20.2376
rfingers 7.12502
rthumb -26.7502 -48.3665
lclavicle -1.78906e-015 2.38542e-015
lhumerus -43.67 6.2382 72.0631
lradius 44.9738
lwrist -4.09094
lhand -16.3793 26.1317
lfingers 7.12502
lthumb 9.83423 55.8821
rfemur -11.4837 3.37135 15.6629
rtibia 28.0868
rfoot -17.7055 -4.2225
rtoes 1.05456
lfemur -7.04736 -0.738909 -11.1605
ltibia 20.9737
lfoot -2.1541 14.8446
ltoes -31.2589
